<?xml version="1.0" standalone="no"?>
<!DOCTYPE svg PUBLIC "-//W3C//DTD SVG 20010904//EN"
 "http://www.w3.org/TR/2001/REC-SVG-20010904/DTD/svg10.dtd">
<svg version="1.0" xmlns="http://www.w3.org/2000/svg"
 width="1280.000000pt" height="724.000000pt" viewBox="0 0 1280.000000 724.000000"
 preserveAspectRatio="xMidYMid meet">
<g transform="translate(0.000000,724.000000) scale(0.100000,-0.100000)"
fill="#000000" stroke="none">
<path d="M4355 7229 c-44 -5 -141 -16 -215 -25 -1249 -146 -2316 -971 -2783
-2150 -246 -620 -302 -1333 -156 -1986 11 -50 18 -97 15 -104 -2 -6 -28 -17
-58 -24 -398 -94 -757 -364 -956 -718 -59 -104 -115 -242 -143 -349 -32 -126
-62 -350 -56 -423 34 -411 174 -730 438 -998 229 -232 512 -375 841 -427 207
-33 239 -32 488 12 413 72 802 348 1014 720 22 40 46 73 52 73 6 0 72 -31 145
-69 456 -237 943 -362 1469 -378 928 -28 1811 315 2479 962 125 121 246 256
336 375 27 36 60 77 73 91 l23 26 162 -82 c357 -180 701 -264 1092 -265 558
-1 1092 187 1524 538 l94 77 31 -40 c257 -325 551 -503 931 -561 129 -20 362
-13 490 14 551 120 979 558 1080 1107 32 178 35 199 35 257 0 88 -45 332 -81
439 -165 493 -593 853 -1114 936 -129 20 -371 13 -498 -15 -53 -12 -90 -16
-93 -10 -4 5 -17 63 -29 127 -188 959 -947 1719 -1898 1900 -192 37 -287 44
-524 38 -242 -5 -370 -21 -563 -73 -209 -55 -465 -164 -638 -272 -46 -29 -87
-52 -92 -52 -5 0 -49 48 -98 108 -108 129 -341 358 -472 463 -428 343 -931
580 -1455 687 -158 32 -221 41 -437 62 -214 21 -321 23 -453 9z"/>
</g>
</svg>
