<?xml version="1.0" standalone="no"?>
<!DOCTYPE svg PUBLIC "-//W3C//DTD SVG 20010904//EN"
 "http://www.w3.org/TR/2001/REC-SVG-20010904/DTD/svg10.dtd">
<svg version="1.0" xmlns="http://www.w3.org/2000/svg"
 width="512.000000pt" height="512.000000pt" viewBox="0 0 512.000000 512.000000"
 preserveAspectRatio="xMidYMid meet">

<g transform="translate(0.000000,512.000000) scale(0.100000,-0.100000)"
fill="#000000" stroke="none">
<path d="M2507 4689 c-114 -18 -93 1 -1093 -1001 -907 -908 -943 -945 -964
-1003 -34 -92 -31 -185 9 -272 30 -64 81 -117 964 -999 710 -708 943 -935 978
-952 106 -51 211 -51 318 -1 35 17 265 241 959 933 502 501 926 931 941 956
73 115 81 250 22 376 -30 66 -74 111 -949 985 -720 720 -928 922 -968 942 -44
22 -68 29 -149 41 -11 2 -42 0 -68 -5z"/>
</g>
</svg>
